<?xml version="1.0" encoding="UTF-8" standalone="no" ?>
<!DOCTYPE svg PUBLIC "-//W3C//DTD SVG 1.1//EN" "http://www.w3.org/Graphics/SVG/1.1/DTD/svg11.dtd">
<svg xmlns="http://www.w3.org/2000/svg" xmlns:xlink="http://www.w3.org/1999/xlink" version="1.1" width="248.57492187499997" height="262.16200000000003" xml:space="preserve">
<desc>Created with Fabric.js 1.6.0-rc.1</desc>
<defs></defs>
  <g transform="translate(62.57 48.29) scale(1.4 1.4)">
   <text font-family="ADAMCG PRO" font-size="40" font-weight="normal" style="stroke: none; stroke-width: 1; stroke-dasharray: none; stroke-linecap: butt; stroke-linejoin: miter; stroke-miterlimit: 10; fill: #2b820e; fill-rule: nonzero; opacity: 1;" ><tspan x="-37.05" y="8.98" style="stroke: none; stroke-width: 0; stroke-dasharray: none; stroke-linecap: butt; stroke-linejoin: miter; stroke-miterlimit: 4; fill: #2b820e; fill-rule: ; opacity: 1;">J</tspan><tspan x="-20.25" y="8.98" style="stroke: none; stroke-width: 0; stroke-dasharray: none; stroke-linecap: butt; stroke-linejoin: miter; stroke-miterlimit: 4; fill: #2b820e; fill-rule: ; opacity: 1;">a</tspan><tspan x="7.54" y="8.98" style="stroke: none; stroke-width: 0; stroke-dasharray: none; stroke-linecap: butt; stroke-linejoin: miter; stroke-miterlimit: 4; fill: #2b820e; fill-rule: ; opacity: 1;">n</tspan></text>
 </g>
  <g transform="translate(163.95 50.07) scale(1.45 1.5)">
   <text font-family="ADAMCG PRO" font-size="40" font-weight="normal" style="stroke: none; stroke-width: 1; stroke-dasharray: none; stroke-linecap: butt; stroke-linejoin: miter; stroke-miterlimit: 10; fill: #0f3c5e; fill-rule: nonzero; opacity: 1;" ><tspan x="-31.17" y="8.98" style="stroke: none; stroke-width: 0; stroke-dasharray: none; stroke-linecap: butt; stroke-linejoin: miter; stroke-miterlimit: 4; fill: #0f3c5e; fill-rule: ; opacity: 1;">g</tspan><tspan x="-2.77" y="8.98" style="stroke: none; stroke-width: 0; stroke-dasharray: none; stroke-linecap: butt; stroke-linejoin: miter; stroke-miterlimit: 4; fill: #0f3c5e; fill-rule: ; opacity: 1;">o</tspan></text>
 </g>
  <g transform="translate(126.75 109.05) scale(1.89 1.46)">
   <text font-family="MANIFESTO" font-size="40" font-weight="normal" style="stroke: none; stroke-width: 1; stroke-dasharray: none; stroke-linecap: butt; stroke-linejoin: miter; stroke-miterlimit: 10; fill: #19451f; fill-rule: nonzero; opacity: 1;" ><tspan x="-59.67" y="8.98" style="stroke: none; stroke-width: 0; stroke-dasharray: none; stroke-linecap: butt; stroke-linejoin: miter; stroke-miterlimit: 4; fill: #19451f; fill-rule: ; opacity: 1;">S</tspan><tspan x="-36.89" y="8.98" style="stroke: none; stroke-width: 0; stroke-dasharray: none; stroke-linecap: butt; stroke-linejoin: miter; stroke-miterlimit: 4; fill: #19451f; fill-rule: ; opacity: 1;">o</tspan><tspan x="0.18" y="8.98" style="stroke: none; stroke-width: 0; stroke-dasharray: none; stroke-linecap: butt; stroke-linejoin: miter; stroke-miterlimit: 4; fill: #19451f; fill-rule: ; opacity: 1;">f</tspan><tspan x="29.9" y="8.98" style="stroke: none; stroke-width: 0; stroke-dasharray: none; stroke-linecap: butt; stroke-linejoin: miter; stroke-miterlimit: 4; fill: #19451f; fill-rule: ; opacity: 1;">t</tspan></text>
 </g>
<g style="stroke: none; stroke-width: 1; stroke-dasharray: none; stroke-linecap: butt; stroke-linejoin: miter; stroke-miterlimit: 10; fill: none; fill-rule: nonzero; opacity: 1;" transform="translate(35.48000000000002 110.06) rotate(149.65) scale(2.27 2.27)" >
  <path d="M 27.421 7.144 c -2.077 1.183 -13.076 7.451 -18.486 10.534 c 6.022 3.433 16.551 9.432 18.486 10.534 c 1.938 -1.103 12.464 -7.102 18.488 -10.534 C 40.5 14.595 29.498 8.326 27.421 7.144" style="stroke: none; stroke-width: 1; stroke-dasharray: none; stroke-linecap: butt; stroke-linejoin: miter; stroke-miterlimit: 10; fill: #FFFFFF; fill-rule: nonzero; opacity: 1;" transform=" matrix(1 0 0 1 0 0) " stroke-linecap="round" />
  <path d="M 24.289 33.569 L 6.27 23.303 v 20 c 2.019 1.15 12.466 7.106 18.019 10.269 V 33.569" style="stroke: none; stroke-width: 1; stroke-dasharray: none; stroke-linecap: butt; stroke-linejoin: miter; stroke-miterlimit: 10; fill: #F16522; fill-rule: nonzero; opacity: 1;" transform=" matrix(1 0 0 1 0 0) " stroke-linecap="round" />
  <path d="M 48.575 23.303 l -18.02 10.267 v 20.002 c 5.551 -3.162 16 -9.118 18.02 -10.269 V 23.303" style="stroke: none; stroke-width: 1; stroke-dasharray: none; stroke-linecap: butt; stroke-linejoin: miter; stroke-miterlimit: 10; fill: #EC1C24; fill-rule: nonzero; opacity: 1;" transform=" matrix(1 0 0 1 0 0) " stroke-linecap="round" />
  <polyline points="-229.18,-1241.69 -503.39,-1085.45 -503.39,-772.95 -229.18,-616.7 45.05,-772.95 45.05,-1085.45 -229.18,-1241.69 " style="stroke: none; stroke-width: 1; stroke-dasharray: none; stroke-linecap: butt; stroke-linejoin: miter; stroke-miterlimit: 10; fill: #d5ebc1; fill-rule: nonzero; opacity: 1;" transform="  matrix(1 0 0 1 0 0) "/>
  <path d="M -229.176 -1241.695 l -274.214 156.24 v 312.51 l 274.214 156.25 l 274.224 -156.25 v -312.51 L -229.176 -1241.695" style="stroke: none; stroke-width: 1; stroke-dasharray: none; stroke-linecap: butt; stroke-linejoin: miter; stroke-miterlimit: 10; fill: #d5ebc1; fill-rule: nonzero; opacity: 1;" transform=" matrix(0.1 0 0 0.1 50.338983 124.16949) " stroke-linecap="round" />
  <path d="M 48.575 43.303 c -2.02 1.15 -12.469 7.106 -18.02 10.269 V 33.569 l 18.02 -10.267 V 43.303" style="stroke: none; stroke-width: 1; stroke-dasharray: none; stroke-linecap: butt; stroke-linejoin: miter; stroke-miterlimit: 10; fill: #0e8c4f; fill-rule: nonzero; opacity: 1;" transform=" matrix(1 0 0 1 0 0) " stroke-linecap="round" />
  <path d="M 45.909 17.678 c -6.023 3.433 -16.55 9.432 -18.488 10.534 c -1.935 -1.103 -12.464 -7.102 -18.486 -10.534 c 5.41 -3.083 16.41 -9.352 18.486 -10.534 C 29.498 8.326 40.5 14.595 45.909 17.678" style="stroke: none; stroke-width: 1; stroke-dasharray: none; stroke-linecap: butt; stroke-linejoin: miter; stroke-miterlimit: 10; fill: #0e8c4f; fill-rule: nonzero; opacity: 1;" transform=" matrix(1 0 0 1 0 0) " stroke-linecap="round" />
  <path d="M 24.289 53.571 c -5.552 -3.162 -16 -9.118 -18.019 -10.269 v -20 l 18.019 10.267 V 53.571" style="stroke: none; stroke-width: 1; stroke-dasharray: none; stroke-linecap: butt; stroke-linejoin: miter; stroke-miterlimit: 10; fill: #0e8c4f; fill-rule: nonzero; opacity: 1;" transform=" matrix(1 0 0 1 0 0) " stroke-linecap="round" />
</g>
</svg>